<?xml version="1.0" encoding="iso-8859-1"?>
<!-- Generator: Adobe Illustrator 19.0.0, SVG Export Plug-In . SVG Version: 6.00 Build 0)  -->
<svg version="1.1" id="Capa_1" xmlns="http://www.w3.org/2000/svg" xmlns:xlink="http://www.w3.org/1999/xlink" x="0px" y="0px"
	 viewBox="0 0 512.001 512.001" style="enable-background:new 0 0 512.001 512.001;" xml:space="preserve">
<path style="fill:#9C5F7C;" d="M408.045,233.258c0-12.876,5.273-25.161,14.473-33.716v-83.275c0-24.776-20.085-44.862-44.862-44.862
	h-45.605c-15.371-25.984-43.674-43.413-76.051-43.413s-60.68,17.428-76.05,43.413h-45.605c-24.776,0-44.862,20.085-44.862,44.862
	v83.275c9.201,8.555,14.473,20.839,14.473,33.716v58.246c8.936-11.552,22.933-18.991,38.669-18.991h226.751
	c15.735,0,29.733,7.438,38.669,18.991L408.045,233.258L408.045,233.258z"/>
<path style="fill:#E697B4;" d="M142.626,272.513h226.751c4.553,0,8.96,0.624,13.141,1.789V116.267c0-2.68-2.181-4.861-4.861-4.861
	h-68.417l-11.614-19.634c-8.809-14.889-24.368-23.778-41.624-23.778c-17.255,0-32.815,8.889-41.623,23.778l-11.615,19.634h-68.418
	c-2.68,0-4.861,2.181-4.861,4.861v158.035C133.665,273.137,138.072,272.513,142.626,272.513z"/>
<path d="M271.799,125.369c-3.906-3.905-10.236-3.905-14.143,0L256,127.025l-1.656-1.656c-3.905-3.905-10.237-3.905-14.143,0
	c-3.905,3.905-3.905,10.237,0,14.143l1.656,1.655l-1.656,1.656c-3.905,3.905-3.905,10.237,0,14.143
	c1.953,1.953,4.512,2.929,7.071,2.929s5.119-0.976,7.071-2.929l1.656-1.656l1.656,1.656c1.953,1.953,4.512,2.929,7.071,2.929
	c2.56,0,5.118-0.976,7.071-2.929c3.905-3.905,3.905-10.237,0-14.143l-1.656-1.656l1.656-1.655
	C275.705,135.606,275.705,129.274,271.799,125.369z"/>
<path d="M337.812,192.774l1.656-1.656c3.905-3.905,3.905-10.237,0-14.143c-3.906-3.905-10.236-3.905-14.142,0l-1.656,1.656
	l-1.656-1.656c-3.906-3.905-10.236-3.905-14.143,0c-3.905,3.905-3.905,10.237,0,14.143l1.656,1.656l-1.656,1.656
	c-3.905,3.905-3.905,10.237,0,14.143c1.953,1.953,4.512,2.929,7.071,2.929c2.56,0,5.118-0.976,7.071-2.929l1.656-1.656l1.656,1.656
	c1.953,1.953,4.512,2.929,7.071,2.929c2.56,0,5.118-0.976,7.071-2.929c3.905-3.905,3.905-10.237,0-14.143L337.812,192.774z"/>
<path d="M204.131,176.976c-3.905-3.905-10.237-3.905-14.142,0.001l-1.656,1.656l-1.656-1.656
	c-3.906-3.906-10.237-3.905-14.142-0.001c-3.905,3.905-3.906,10.237,0,14.142l1.656,1.656l-1.656,1.656
	c-3.905,3.905-3.905,10.237,0,14.142c1.953,1.953,4.512,2.929,7.071,2.929s5.119-0.977,7.071-2.929l1.656-1.656l1.656,1.656
	c1.953,1.953,4.512,2.929,7.071,2.929s5.119-0.977,7.071-2.929c3.905-3.905,3.906-10.237,0-14.142l-1.656-1.656l1.656-1.656
	C208.037,187.212,208.037,180.881,204.131,176.976z"/>
<path style="fill:#9C5F7C;" d="M103.957,368.706h304.087v-77.201c-8.936-11.552-22.933-18.991-38.669-18.991h-226.75
	c-15.735,0-29.733,7.439-38.669,18.991C103.957,291.504,103.957,368.706,103.957,368.706z"/>
<rect x="48.643" y="368.708" style="fill:#FDF2D3;" width="414.717" height="70.651"/>
<g>
	<path style="fill:#CFA78B;" d="M48.643,368.706h55.315V233.258c0-16.347-8.499-31.743-22.745-39.761
		c-6.505-3.661-13.984-5.76-21.963-5.772c-0.049,0-0.097,0-0.146,0c-24.233,0.035-45.097,17.839-48.572,41.822
		c-3.87,26.707,13.748,50.071,38.112,55.388C48.643,284.935,48.643,368.706,48.643,368.706z"/>
	<rect x="48.643" y="439.349" style="fill:#CFA78B;" width="55.311" height="44.657"/>
	<rect x="408.048" y="439.349" style="fill:#CFA78B;" width="55.311" height="44.657"/>
	<path style="fill:#CFA78B;" d="M501.471,229.548c-3.475-23.982-24.339-41.788-48.572-41.822c-0.048,0-0.097,0-0.146,0
		c-7.979,0.012-15.459,2.111-21.963,5.772c-14.246,8.018-22.745,23.412-22.745,39.761v135.447h55.315v-83.771
		C487.723,279.619,505.342,256.255,501.471,229.548z"/>
</g>
<path d="M365.773,345.862c-0.649,0-1.31-0.06-1.95-0.19c-0.64-0.13-1.27-0.32-1.88-0.57c-0.6-0.25-1.18-0.56-1.72-0.92
	c-0.55-0.36-1.06-0.78-1.52-1.24c-0.46-0.46-0.881-0.98-1.25-1.52c-0.36-0.55-0.67-1.13-0.92-1.73s-0.441-1.23-0.57-1.87
	c-0.13-0.65-0.19-1.3-0.19-1.96c0-0.65,0.061-1.3,0.19-1.95c0.13-0.64,0.32-1.27,0.57-1.87c0.25-0.6,0.559-1.18,0.92-1.73
	c0.369-0.54,0.79-1.06,1.25-1.52c0.46-0.46,0.97-0.88,1.52-1.24c0.54-0.36,1.12-0.67,1.72-0.92c0.61-0.25,1.24-0.44,1.88-0.57
	c1.28-0.26,2.61-0.26,3.9,0c0.64,0.13,1.271,0.32,1.87,0.57c0.61,0.25,1.191,0.56,1.73,0.92c0.551,0.36,1.061,0.78,1.52,1.24
	c1.86,1.87,2.93,4.44,2.93,7.07c0,0.66-0.069,1.31-0.2,1.96c-0.13,0.64-0.319,1.27-0.569,1.87s-0.561,1.18-0.92,1.73
	c-0.36,0.54-0.78,1.06-1.24,1.52c-0.46,0.46-0.97,0.88-1.52,1.24c-0.539,0.36-1.119,0.67-1.73,0.92c-0.6,0.25-1.23,0.44-1.87,0.57
	C367.083,345.802,366.423,345.862,365.773,345.862z"/>
<path d="M83.769,414.033c-0.65,0-1.31-0.07-1.95-0.2c-0.64-0.13-1.27-0.32-1.88-0.57c-0.6-0.25-1.18-0.56-1.72-0.92
	c-0.55-0.36-1.06-0.78-1.52-1.24c-0.46-0.47-0.88-0.98-1.24-1.52c-0.37-0.55-0.67-1.13-0.92-1.73c-0.25-0.6-0.45-1.23-0.58-1.87
	c-0.13-0.65-0.19-1.3-0.19-1.95c0-2.64,1.07-5.21,2.93-7.08c0.46-0.46,0.97-0.88,1.52-1.24c0.54-0.36,1.12-0.67,1.72-0.92
	c0.61-0.25,1.24-0.44,1.88-0.57c1.28-0.26,2.61-0.26,3.9,0c0.64,0.13,1.27,0.32,1.87,0.57c0.61,0.25,1.19,0.56,1.73,0.92
	c0.55,0.36,1.06,0.78,1.52,1.24c1.86,1.87,2.93,4.44,2.93,7.08c0,0.65-0.07,1.3-0.2,1.95c-0.12,0.64-0.32,1.27-0.57,1.87
	c-0.25,0.6-0.56,1.18-0.92,1.73c-0.36,0.539-0.78,1.05-1.24,1.52c-0.46,0.46-0.97,0.88-1.52,1.24c-0.54,0.36-1.12,0.67-1.73,0.92
	c-0.6,0.25-1.23,0.44-1.87,0.57C85.078,413.963,84.418,414.033,83.769,414.033z"/>
<path d="M511.368,228.114c-4.157-28.685-29.287-50.347-58.367-50.388l-0.262-0.001c-6.931,0.01-13.806,1.343-20.22,3.891v-65.35
	c0-30.251-24.61-54.862-54.862-54.862h-40.103c-18.174-26.917-48.906-43.413-81.553-43.413s-63.379,16.496-81.552,43.413h-40.103
	c-30.252,0-54.862,24.611-54.862,54.862v65.349c-6.409-2.548-13.267-3.881-20.135-3.89l-0.26-0.001
	C29.92,177.766,4.79,199.429,0.633,228.112c-2.211,15.259,1.412,30.505,10.202,42.926c6.974,9.855,16.662,17.256,27.806,21.368
	V484.01c0,5.523,4.477,10,10,10h55.315c5.523,0,10-4.477,10-10v-34.657h284.087v34.657c0,5.523,4.478,10,10,10h55.316
	c5.522,0,10-4.477,10-10l0,0c0-0.026,0,0.025,0,0V292.408c0-0.026,0,0,0-0.026v0.026c11.143-4.112,20.831-11.513,27.805-21.368
	C509.956,258.619,513.579,243.373,511.368,228.114z M453.359,394.029H123.768c-5.523,0-10,4.477-10,10s4.477,10,10,10h329.591
	v15.323H58.643v-50.647H453.36L453.359,394.029L453.359,394.029z M113.958,358.705v-12.837h211.815c5.522,0,10-4.477,10-10
	s-4.478-10-10-10H113.958v-30.73c0.018-0.019,0.035-0.039,0.053-0.059c0.048-0.053,0.097-0.105,0.146-0.158
	c0.073-0.079,0.147-0.159,0.221-0.238c0.051-0.054,0.102-0.107,0.153-0.161c0.072-0.076,0.145-0.152,0.218-0.228
	c0.053-0.054,0.106-0.109,0.159-0.163c0.073-0.074,0.146-0.148,0.219-0.222c0.053-0.053,0.106-0.107,0.16-0.16
	c0.074-0.073,0.148-0.146,0.222-0.219c0.054-0.053,0.108-0.106,0.163-0.159c0.074-0.072,0.149-0.143,0.224-0.215
	c0.055-0.052,0.109-0.104,0.164-0.156c0.075-0.071,0.151-0.141,0.227-0.211c0.055-0.051,0.111-0.103,0.166-0.154
	c0.09-0.082,0.18-0.163,0.27-0.244c0.041-0.037,0.081-0.074,0.122-0.11c0.131-0.117,0.262-0.232,0.395-0.346
	c0.045-0.039,0.091-0.078,0.136-0.116c0.089-0.076,0.177-0.152,0.266-0.227c0.057-0.048,0.115-0.096,0.172-0.144
	c0.079-0.065,0.157-0.131,0.236-0.196c0.06-0.049,0.12-0.097,0.18-0.146c0.077-0.062,0.154-0.125,0.231-0.186
	c0.063-0.051,0.127-0.101,0.191-0.151c0.075-0.059,0.15-0.117,0.225-0.176c0.065-0.05,0.129-0.1,0.194-0.149
	c0.075-0.057,0.15-0.114,0.225-0.171c0.067-0.05,0.134-0.101,0.202-0.151c0.074-0.055,0.149-0.11,0.223-0.164
	c0.067-0.049,0.133-0.098,0.2-0.146c0.078-0.057,0.157-0.113,0.236-0.169c0.064-0.046,0.128-0.091,0.192-0.137
	c0.084-0.059,0.169-0.118,0.254-0.176c0.059-0.041,0.118-0.082,0.178-0.123c0.091-0.062,0.182-0.123,0.273-0.184
	c0.056-0.037,0.112-0.076,0.168-0.113c0.142-0.094,0.285-0.188,0.429-0.28c0.055-0.035,0.111-0.07,0.166-0.105
	c0.092-0.058,0.184-0.117,0.276-0.175c0.068-0.043,0.137-0.084,0.205-0.126c0.08-0.05,0.161-0.099,0.242-0.148
	c0.071-0.043,0.142-0.085,0.213-0.127c0.08-0.047,0.159-0.095,0.239-0.142c0.073-0.043,0.146-0.085,0.219-0.127
	c0.078-0.045,0.156-0.09,0.234-0.135c0.075-0.042,0.149-0.084,0.224-0.126c0.078-0.044,0.156-0.087,0.234-0.13
	c0.074-0.041,0.149-0.082,0.224-0.122c0.08-0.043,0.16-0.086,0.24-0.129c0.074-0.039,0.148-0.079,0.222-0.118
	c0.083-0.044,0.167-0.087,0.25-0.13c0.072-0.037,0.143-0.074,0.215-0.11c0.086-0.043,0.172-0.086,0.257-0.129
	c0.071-0.035,0.141-0.07,0.212-0.105c0.092-0.045,0.184-0.089,0.276-0.133c0.066-0.032,0.132-0.064,0.198-0.095
	c0.154-0.073,0.308-0.144,0.462-0.215c0.061-0.028,0.122-0.055,0.184-0.082c0.098-0.044,0.196-0.088,0.294-0.132
	c0.073-0.032,0.146-0.063,0.22-0.095c0.088-0.038,0.175-0.076,0.263-0.113c0.074-0.031,0.149-0.063,0.224-0.093
	c0.087-0.036,0.174-0.073,0.262-0.108c0.076-0.031,0.151-0.061,0.227-0.091c0.088-0.035,0.176-0.07,0.264-0.105
	c0.075-0.03,0.15-0.059,0.226-0.088c0.088-0.034,0.177-0.068,0.265-0.101c0.076-0.029,0.153-0.057,0.23-0.086
	c0.089-0.033,0.178-0.065,0.267-0.097c0.075-0.027,0.151-0.054,0.226-0.081c0.091-0.032,0.182-0.064,0.273-0.095
	c0.076-0.026,0.152-0.053,0.228-0.078c0.091-0.031,0.183-0.061,0.275-0.091c0.075-0.025,0.149-0.049,0.224-0.074
	c0.101-0.033,0.203-0.065,0.305-0.097c0.065-0.02,0.131-0.042,0.196-0.062c0.165-0.051,0.33-0.101,0.496-0.149
	c0.047-0.014,0.095-0.027,0.143-0.041c0.032-0.009,0.064-0.018,0.095-0.027c0.107-0.026,0.215-0.054,0.322-0.084
	c2.536-0.706,5.145-1.152,7.787-1.331c0.052-0.003,0.104-0.007,0.157-0.01c0.046-0.003,0.092-0.006,0.139-0.009
	c0.041-0.003,0.082-0.005,0.123-0.007c0.049-0.003,0.098-0.005,0.148-0.008c0.083-0.004,0.165-0.008,0.248-0.012
	c0.077-0.004,0.154-0.007,0.232-0.01c0.002,0,0.005,0,0.007,0c0.109-0.004,0.218-0.008,0.328-0.012
	c0.055-0.002,0.111-0.004,0.166-0.005c0.016,0,0.032-0.001,0.048-0.001c0.119-0.003,0.239-0.005,0.358-0.008
	c0.049-0.001,0.098-0.002,0.147-0.003c0.022,0,0.044-0.001,0.067-0.001c0.168-0.002,0.337-0.004,0.506-0.004h226.751
	c0.169,0,0.337,0.001,0.506,0.004c0.022,0,0.044,0.001,0.067,0.001c0.049,0.001,0.098,0.002,0.146,0.003
	c0.12,0.002,0.239,0.004,0.359,0.008l0.048,0.001c0.055,0.002,0.11,0.004,0.165,0.005c0.11,0.004,0.219,0.007,0.329,0.012
	c0.002,0,0.004,0,0.006,0c0.077,0.003,0.154,0.007,0.231,0.01c0.083,0.004,0.167,0.008,0.25,0.012
	c0.049,0.003,0.098,0.005,0.146,0.008c0.041,0.002,0.082,0.005,0.123,0.007c0.042,0.003,0.084,0.005,0.126,0.008
	c0.057,0.003,0.114,0.007,0.171,0.011c2.642,0.179,5.251,0.625,7.786,1.331c0.107,0.03,0.215,0.058,0.323,0.084
	c0.059,0.017,0.118,0.033,0.176,0.05c0.018,0.005,0.036,0.01,0.054,0.016c0.17,0.05,0.339,0.101,0.508,0.153
	c0.05,0.015,0.099,0.031,0.149,0.047c0.117,0.037,0.235,0.073,0.352,0.111c0.066,0.021,0.132,0.043,0.198,0.065
	c0.101,0.033,0.202,0.067,0.303,0.101c0.068,0.023,0.136,0.047,0.204,0.07c0.099,0.034,0.198,0.068,0.296,0.103
	c0.07,0.025,0.139,0.05,0.208,0.075c0.095,0.034,0.191,0.069,0.286,0.104c0.071,0.026,0.142,0.053,0.213,0.079
	c0.095,0.036,0.19,0.072,0.285,0.109c0.068,0.026,0.137,0.053,0.205,0.079c0.097,0.038,0.193,0.076,0.29,0.115
	c0.067,0.027,0.135,0.054,0.201,0.081c0.098,0.04,0.196,0.081,0.294,0.122c0.064,0.027,0.128,0.053,0.192,0.08
	c0.103,0.043,0.205,0.088,0.307,0.132c0.059,0.026,0.118,0.051,0.176,0.076c0.127,0.056,0.253,0.113,0.379,0.17
	c0.033,0.015,0.066,0.029,0.099,0.044c0.159,0.072,0.317,0.146,0.474,0.221c0.048,0.023,0.095,0.046,0.143,0.069
	c0.111,0.053,0.221,0.106,0.332,0.16c0.061,0.03,0.121,0.06,0.181,0.09c0.096,0.048,0.192,0.095,0.287,0.144
	c0.065,0.033,0.131,0.067,0.196,0.1c0.091,0.047,0.182,0.094,0.272,0.141c0.067,0.035,0.134,0.071,0.201,0.107
	c0.087,0.046,0.174,0.093,0.261,0.14c0.068,0.037,0.137,0.074,0.205,0.112c0.086,0.047,0.172,0.095,0.257,0.143
	c0.067,0.038,0.135,0.075,0.202,0.114c0.086,0.049,0.172,0.098,0.258,0.148c0.067,0.039,0.133,0.077,0.2,0.116
	c0.087,0.051,0.174,0.103,0.262,0.155c0.063,0.038,0.126,0.075,0.189,0.113c0.09,0.054,0.179,0.109,0.268,0.164
	c0.061,0.038,0.122,0.075,0.184,0.113c0.105,0.066,0.21,0.132,0.314,0.199c0.042,0.027,0.084,0.053,0.126,0.08
	c0.147,0.094,0.292,0.189,0.438,0.285c0.043,0.029,0.086,0.058,0.129,0.087c0.104,0.069,0.208,0.139,0.311,0.209
	c0.053,0.036,0.106,0.073,0.159,0.109c0.092,0.064,0.184,0.127,0.276,0.192c0.057,0.04,0.114,0.081,0.171,0.122
	c0.086,0.061,0.172,0.122,0.258,0.184c0.061,0.044,0.122,0.089,0.182,0.133c0.081,0.059,0.162,0.119,0.242,0.178
	c0.062,0.046,0.124,0.093,0.186,0.139c0.079,0.06,0.158,0.12,0.237,0.18c0.063,0.048,0.126,0.097,0.189,0.145
	c0.076,0.059,0.152,0.118,0.227,0.178c0.062,0.049,0.125,0.098,0.187,0.147c0.081,0.064,0.161,0.129,0.241,0.194
	c0.057,0.046,0.113,0.091,0.17,0.138c0.084,0.068,0.167,0.138,0.25,0.207c0.053,0.044,0.106,0.088,0.159,0.133
	c0.097,0.082,0.193,0.164,0.289,0.247c0.038,0.032,0.076,0.064,0.113,0.097c0.134,0.116,0.267,0.233,0.399,0.351
	c0.03,0.026,0.059,0.053,0.089,0.08c0.102,0.091,0.203,0.183,0.304,0.275c0.05,0.046,0.101,0.093,0.151,0.14
	c0.081,0.075,0.162,0.15,0.242,0.225c0.051,0.048,0.102,0.097,0.153,0.145c0.079,0.075,0.158,0.15,0.236,0.226
	c0.052,0.05,0.103,0.101,0.155,0.151c0.076,0.074,0.152,0.149,0.227,0.224c0.053,0.053,0.106,0.106,0.159,0.159
	c0.073,0.074,0.147,0.148,0.219,0.222c0.053,0.054,0.105,0.108,0.158,0.162c0.075,0.077,0.149,0.155,0.223,0.233
	c0.049,0.051,0.097,0.102,0.146,0.154c0.076,0.081,0.151,0.162,0.226,0.243c0.048,0.052,0.096,0.103,0.143,0.155
	c0.018,0.02,0.036,0.039,0.053,0.059v63.568L113.958,358.705L113.958,358.705z M372.518,262.596
	c-0.071-0.004-0.142-0.007-0.214-0.011c-0.062-0.003-0.124-0.006-0.186-0.009c-0.09-0.004-0.18-0.008-0.269-0.012
	c-0.062-0.002-0.124-0.005-0.186-0.007c-0.09-0.003-0.18-0.007-0.27-0.01c-0.064-0.002-0.128-0.004-0.193-0.006
	c-0.086-0.003-0.173-0.005-0.259-0.007c-0.068-0.002-0.135-0.004-0.203-0.005c-0.056-0.001-0.112-0.003-0.168-0.004
	c-0.026,0-0.052-0.001-0.078-0.001c-0.003,0-0.006,0-0.01,0c-0.065-0.001-0.131-0.003-0.197-0.004c-0.033,0-0.066-0.001-0.1-0.001
	c-0.067-0.001-0.134-0.001-0.201-0.002c-0.051,0-0.102-0.001-0.152-0.002c-0.015,0-0.03,0-0.044,0
	c-0.137-0.001-0.274-0.001-0.411-0.001H142.626c-0.137,0-0.274,0-0.411,0.001c-0.015,0-0.029,0-0.044,0
	c-0.051,0-0.102,0.001-0.153,0.002c-0.067,0.001-0.134,0.001-0.2,0.002c-0.033,0-0.066,0.001-0.1,0.001
	c-0.066,0.001-0.132,0.002-0.197,0.004c-0.004,0-0.008,0-0.011,0c-0.025,0-0.05,0.001-0.075,0.001
	c-0.056,0.001-0.112,0.002-0.169,0.004c-0.068,0.001-0.136,0.003-0.204,0.005c-0.086,0.002-0.172,0.004-0.258,0.007
	c-0.065,0.002-0.13,0.004-0.194,0.006c-0.089,0.003-0.178,0.006-0.267,0.01c-0.063,0.002-0.126,0.005-0.189,0.007
	c-0.089,0.004-0.177,0.008-0.266,0.012c-0.064,0.003-0.127,0.006-0.191,0.009c-0.07,0.003-0.14,0.007-0.21,0.011V121.406h63.278
	c3.535,0,6.807-1.866,8.607-4.909l11.613-19.634c6.989-11.815,19.331-18.869,33.017-18.869c13.684,0,26.026,7.054,33.018,18.87
	l11.614,19.634c1.799,3.042,5.071,4.909,8.606,4.909h63.278V262.596z M99.484,116.267c0-19.223,15.639-34.862,34.862-34.862h45.605
	c3.535,0,6.807-1.866,8.607-4.909c14.049-23.75,39.893-38.504,67.443-38.504c27.551,0,53.395,14.754,67.444,38.504
	c1.8,3.042,5.071,4.909,8.606,4.909h45.604c19.223,0,34.862,15.639,34.862,34.862v79.179c-0.204,0.224-0.405,0.451-0.605,0.679
	c-0.049,0.056-0.098,0.112-0.147,0.168c-0.063,0.072-0.126,0.145-0.189,0.218c-0.083,0.096-0.166,0.193-0.249,0.29
	c-0.033,0.039-0.066,0.077-0.099,0.116c-0.123,0.145-0.244,0.291-0.365,0.437c-0.024,0.029-0.048,0.058-0.072,0.087
	c-7.827,9.495-12.431,21.613-12.731,34.473c-0.001,0.028-0.001,0.057-0.002,0.085c-0.004,0.171-0.007,0.342-0.009,0.513
	c-0.001,0.049-0.001,0.098-0.002,0.147c-0.002,0.199-0.003,0.398-0.003,0.597v36.662c-0.034-0.019-0.068-0.038-0.102-0.057
	c-0.037-0.021-0.074-0.041-0.111-0.061c-0.089-0.049-0.178-0.099-0.268-0.147c-0.029-0.016-0.059-0.032-0.088-0.048
	c-0.435-0.237-0.874-0.468-1.315-0.693c-0.033-0.017-0.065-0.033-0.098-0.05c-0.086-0.044-0.173-0.087-0.259-0.131
	c-0.045-0.022-0.089-0.045-0.134-0.067c-0.081-0.041-0.163-0.081-0.245-0.121c-0.047-0.023-0.095-0.047-0.142-0.07
	c-0.084-0.041-0.168-0.082-0.253-0.123c-0.046-0.022-0.091-0.044-0.137-0.066c-0.081-0.039-0.162-0.078-0.243-0.116
	c-0.056-0.026-0.111-0.053-0.167-0.079c-0.073-0.034-0.145-0.069-0.218-0.102c-0.065-0.03-0.13-0.06-0.195-0.09
	c-0.067-0.031-0.134-0.062-0.201-0.092c-0.065-0.03-0.129-0.059-0.194-0.088c-0.071-0.032-0.141-0.064-0.212-0.096
	c-0.067-0.03-0.134-0.06-0.202-0.089c-0.105-0.047-0.211-0.093-0.316-0.139c-0.089-0.039-0.178-0.078-0.268-0.116
	c-0.053-0.023-0.106-0.045-0.159-0.068V116.267c0-8.194-6.667-14.861-14.861-14.861h-62.714l-8.711-14.726
	C295.602,68.717,276.825,57.992,256,57.992c-20.826,0-39.605,10.724-50.231,28.688l-8.711,14.726h-62.714
	c-8.194,0-14.861,6.667-14.861,14.861v150.942c-0.422,0.18-0.841,0.365-1.258,0.554c-0.024,0.011-0.047,0.021-0.071,0.032
	c-0.099,0.045-0.198,0.091-0.297,0.137c-0.03,0.014-0.061,0.028-0.091,0.042c-0.097,0.045-0.194,0.091-0.291,0.136
	c-0.034,0.016-0.067,0.032-0.101,0.048c-0.096,0.045-0.191,0.091-0.287,0.137c-0.032,0.015-0.063,0.03-0.095,0.046
	c-0.097,0.047-0.194,0.094-0.29,0.141c-0.032,0.016-0.064,0.031-0.096,0.047c-0.097,0.048-0.195,0.096-0.292,0.145
	c-0.026,0.013-0.051,0.026-0.077,0.038c-0.103,0.052-0.206,0.103-0.308,0.155c-0.012,0.006-0.024,0.012-0.036,0.018
	c-0.461,0.235-0.92,0.477-1.375,0.724c-0.027,0.015-0.054,0.029-0.081,0.044c-0.09,0.049-0.179,0.098-0.269,0.148
	c-0.037,0.021-0.074,0.041-0.111,0.061c-0.034,0.019-0.069,0.038-0.103,0.057v-36.662c0-0.199-0.001-0.398-0.004-0.597
	c0-0.049-0.001-0.098-0.002-0.147c-0.002-0.171-0.005-0.342-0.009-0.513c-0.001-0.029-0.001-0.057-0.002-0.086
	c-0.005-0.211-0.011-0.422-0.018-0.632c0-0.002,0-0.005,0-0.007c-0.428-12.409-4.863-24.096-12.328-33.361
	c-0.024-0.029-0.047-0.059-0.071-0.088c-0.089-0.11-0.179-0.22-0.269-0.33c-0.051-0.063-0.103-0.125-0.155-0.188
	c-0.058-0.07-0.116-0.139-0.175-0.209c-0.128-0.153-0.258-0.306-0.388-0.458c-0.025-0.029-0.05-0.058-0.075-0.087
	c-0.321-0.374-0.647-0.744-0.979-1.109v-79.178H99.484z M20.427,230.982c2.743-18.931,19.376-33.228,38.69-33.256h0.006
	c0.03,0,0.082-0.001,0.11,0c5.971,0.009,11.875,1.56,17.073,4.486c2.33,1.311,4.47,2.887,6.397,4.681
	c6.814,6.351,10.858,15.372,11.225,24.937l0.001,0.024c0.011,0.295,0.019,0.591,0.023,0.888c0,0.03,0.001,0.06,0.001,0.09
	c0.002,0.141,0.003,0.283,0.003,0.425v125.447H58.643v-73.769c0-4.701-3.274-8.768-7.868-9.77
	C30.467,270.733,17.419,251.738,20.427,230.982z M93.958,474.009H58.643v-24.656h35.315V474.009z M453.36,474.009h-35.316v-24.656
	h35.316V474.009z M461.227,275.166c-4.593,1.002-7.867,5.069-7.867,9.77v73.769h-35.316V233.258c0-0.142,0.001-0.283,0.003-0.425
	c0-0.03,0.001-0.06,0.001-0.09c0.004-0.296,0.012-0.592,0.023-0.887c0-0.008,0.001-0.017,0.001-0.025
	c0.368-9.58,4.423-18.612,11.256-24.964c0.018-0.017,0.036-0.034,0.053-0.051c1.904-1.762,4.017-3.311,6.313-4.603
	c5.198-2.926,11.103-4.477,17.073-4.486h0.006c0.03-0.001,0.084-0.001,0.11,0c19.314,0.028,35.946,14.324,38.69,33.256
	C494.583,251.738,481.537,270.733,461.227,275.166z"/>
<circle style="fill:#FDF2D3;" cx="453.819" cy="236.505" r="19.5"/>
<path d="M453.816,266.001c-16.267,0-29.501-13.234-29.501-29.501S437.549,207,453.816,207c16.267,0,29.501,13.234,29.501,29.501
	C483.317,252.768,470.083,266.001,453.816,266.001z M453.816,227c-5.238,0-9.5,4.262-9.5,9.5s4.262,9.5,9.5,9.5s9.5-4.262,9.5-9.5
	C463.316,231.262,459.054,227,453.816,227z"/>
<circle style="fill:#FDF2D3;" cx="58.182" cy="236.505" r="19.5"/>
<path d="M58.187,266.001c-16.266,0-29.501-13.234-29.501-29.501S41.921,207,58.187,207s29.501,13.234,29.501,29.501
	C87.688,252.768,74.453,266.001,58.187,266.001z M58.187,227c-5.238,0-9.5,4.262-9.5,9.5s4.262,9.5,9.5,9.5s9.5-4.262,9.5-9.5
	C67.687,231.262,63.425,227,58.187,227z"/>
<g>
</g>
<g>
</g>
<g>
</g>
<g>
</g>
<g>
</g>
<g>
</g>
<g>
</g>
<g>
</g>
<g>
</g>
<g>
</g>
<g>
</g>
<g>
</g>
<g>
</g>
<g>
</g>
<g>
</g>
</svg>
